<svg width="200" height="200" viewBox="0 0 200 200" fill="none" xmlns="http://www.w3.org/2000/svg">
  <rect width="200" height="200" rx="50" fill="#2563EB"/>
  <path d="M70 60C70 54.4772 74.4772 50 80 50H120C125.523 50 130 54.4772 130 60V140C130 145.523 125.523 150 120 150H80C74.4772 150 70 145.523 70 140V60Z" fill="#FFFFFF"/>
  <path d="M50 85C50 82.2386 52.2386 80 55 80H145C147.761 80 150 82.2386 150 85V95C150 97.7614 147.761 100 145 100H55C52.2386 100 50 97.7614 50 95V85Z" fill="#FFFFFF"/>
  <path d="M60 115C60 112.239 62.2386 110 65 110H135C137.761 110 140 112.239 140 115V125C140 127.761 137.761 130 135 130H65C62.2386 130 60 127.761 60 125V115Z" fill="#FFFFFF"/>
</svg>
